<?xml version="1.0" encoding="utf-8"?>
<!-- Generator: Adobe Illustrator 21.0.0, SVG Export Plug-In . SVG Version: 6.00 Build 0)  -->
<svg version="1.2" baseProfile="tiny" id="Layer_1" xmlns="http://www.w3.org/2000/svg" xmlns:xlink="http://www.w3.org/1999/xlink"
	 x="0px" y="0px" viewBox="0 0 30 30" xml:space="preserve">
<path fill="#565656" d="M16.7,15l5.2-5.2c0.5-0.5,0.5-1.2,0-1.7s-1.2-0.5-1.7,0L15,13.3L9.8,8.2c-0.5-0.5-1.2-0.5-1.7,0
	s-0.5,1.2,0,1.7l5.2,5.2l-5.2,5.2c-0.5,0.5-0.5,1.2,0,1.7c0.2,0.2,0.5,0.4,0.8,0.4s0.6-0.1,0.8-0.4l5.2-5.2l5.2,5.2
	c0.2,0.2,0.5,0.4,0.8,0.4s0.6-0.1,0.8-0.4c0.5-0.5,0.5-1.2,0-1.7L16.7,15z"/>
</svg>
